# xmcd
#
# Track frame offsets: 
#        150
#        11602
#        22366
#        32572
#        44480
#        54712
#        64210
#        74015
#        85334
#        96285
#        106280
#        116818
#        128169
#        139275
#        148734
#        161942
#        172949
#        185828
#        196011
#        207392
#        220295
#        233167
#        243974
#        255105
#        267499
#        278668
#        291471
#        300243
#        311628
#
# Disc length: 4281 seconds
#
# Revision: 1
# Processed by: cddbd v1.5.2PL0 Copyright (c) Steve Scherf et al.
# Submitted via: ExactAudioCopy v0.95b2
#
DISCID=c210b71d
DTITLE=Billy Butler - The Right Tracks - The Complete Okeh Recordings 
DTITLE=1963-66
DYEAR=2007
DGENRE=R&B
TTITLE0=Found True Love
TTITLE1=Lady Love 
TTITLE2=Gotta Get Away
TTITLE3=I'm Just A Man
TTITLE4=Can't Live Without Her
TTITLE5=My Heart Is Hurtin'
TTITLE6=Nevertheless
TTITLE7=My Sweet Woman
TTITLE8=I Can't Work No Longer
TTITLE9=Tomorrow Is Another Day
TTITLE10=(I've Got A Feeling) You're Gonna Be Sorry
TTITLE11=(You Make Me Think) You Ain't Ready
TTITLE12=Right Track
TTITLE13=Boston Monkey (Mono Single Mix)
TTITLE14=Does It Matter (Second Version)
TTITLE15=Fighting A Losing Battle
TTITLE16=To Be Or Not To Be (First Version Solo Vocal)
TTITLE17=Lady Love (First Version)
TTITLE18=Found True Love (Stereo Album Version)
TTITLE19=Does It Matter (First Version)
TTITLE20=To Be Or Not To Be (Second Version)
TTITLE21=Singing The Blues (Backing Track)
TTITLE22=She Hurt Me (Backing Track)
TTITLE23=You Won't Let Me Forget It (Backing Track)
TTITLE24=Loneliness (Backing Track)
TTITLE25=Let's Make Up (Backing Track)
TTITLE26=Boston Monkey (Instrumental)
TTITLE27=Right Track (Instrumental)
TTITLE28=Boston Monkey (Stereo Album Version)
EXTD=
EXTT0=
EXTT1=
EXTT2=
EXTT3=
EXTT4=
EXTT5=
EXTT6=
EXTT7=
EXTT8=
EXTT9=
EXTT10=
EXTT11=
EXTT12=
EXTT13=
EXTT14=
EXTT15=
EXTT16=
EXTT17=
EXTT18=
EXTT19=
EXTT20=
EXTT21=
EXTT22=
EXTT23=
EXTT24=
EXTT25=
EXTT26=
EXTT27=
EXTT28=
PLAYORDER=
